# xmcd
#
# Track frame offsets:
# 150
# 11896
# 24999
# 36436
# 50135
# 60620
# 71405
# 84376
# 100890
# 120085
#
# Disc length: 1876 seconds
#
#
# Revision: 0
# Processed by: cddbd v1.5.1PL2 Copyright (c) Steve Scherf et al.
# Submitted via: FreeRIP 2.944 
#
DISCID=7c07520a
DTITLE=Jimmy Reed - Just Jimmy Reed
DYEAR=2000
DGENRE=Blues
TTITLE0=I'll Change That Too
TTITLE1=Let's Get Together
TTITLE2=Good Lover
TTITLE3=Take It Slow
TTITLE4=Too Much
TTITLE5=In the Morning
TTITLE6=Oh John
TTITLE7=Back Home at Noon
TTITLE8=Kansas City Baby
TTITLE9=You Can't Hide
EXTD=
EXTT0=
EXTT1=
EXTT2=
EXTT3=
EXTT4=
EXTT5=
EXTT6=
EXTT7=
EXTT8=
EXTT9=
PLAYORDER=
